<?xml version="1.0" standalone="no"?>
<!DOCTYPE svg PUBLIC "-//W3C//DTD SVG 20010904//EN"
 "http://www.w3.org/TR/2001/REC-SVG-20010904/DTD/svg10.dtd">
<svg version="1.0" xmlns="http://www.w3.org/2000/svg"
 width="311.000000pt" height="311.000000pt" viewBox="0 0 311.000000 311.000000"
 preserveAspectRatio="xMidYMid meet">
<metadata>
Created by potrace 1.14, written by Peter Selinger 2001-2017
</metadata>
<g transform="translate(0.000000,311.000000) scale(0.100000,-0.100000)"
fill="#000000" stroke="none">
<path d="M1442 3085 c-12 -9 -29 -29 -37 -45 -8 -16 -69 -72 -136 -125 l-120
-96 -36 12 c-45 14 -94 7 -132 -22 -85 -63 -59 -205 44 -236 32 -10 88 -5 114
11 10 7 161 -57 161 -68 0 -6 -60 -154 -85 -211 -8 -16 -57 -136 -110 -265
-53 -129 -101 -240 -106 -246 -5 -7 -22 -14 -38 -17 -43 -9 -97 -61 -117 -112
-9 -25 -24 -47 -33 -49 -9 -3 -91 -28 -184 -56 l-167 -52 -51 25 c-52 26 -90
25 -126 -4 -19 -16 -40 -60 -38 -79 1 -8 3 -24 3 -36 1 -11 11 -30 23 -43 20
-22 21 -23 4 -99 -9 -42 -23 -98 -30 -124 -7 -25 -11 -48 -9 -51 3 -2 -12 -8
-33 -12 -122 -22 -213 -144 -200 -270 12 -121 83 -194 222 -230 6 -1 37 -64
69 -138 l59 -136 -17 -41 c-21 -53 -20 -75 4 -125 35 -72 116 -101 198 -69 38
14 53 15 124 4 56 -9 88 -20 108 -36 34 -29 64 -30 90 -4 31 31 26 75 -11 102
-31 23 -135 155 -127 163 2 2 19 7 38 10 19 3 51 10 70 15 26 7 402 92 510
115 8 2 48 11 89 20 l74 17 21 -25 c37 -44 99 -61 135 -38 11 7 45 -18 130
-93 102 -91 118 -109 128 -149 33 -123 174 -190 288 -138 50 22 101 79 116
129 6 21 16 39 23 39 6 0 40 3 76 7 36 3 92 8 125 12 33 3 73 7 89 8 16 2 44
-5 63 -17 122 -71 266 48 219 181 -14 38 -13 46 8 104 13 35 33 93 45 129 21
65 23 67 64 77 92 24 104 137 19 178 -31 14 -38 15 -72 1 l-38 -15 -132 133
c-112 114 -133 140 -142 177 -9 40 -122 600 -132 650 -2 13 -12 59 -21 104
l-18 81 29 49 c25 42 29 59 29 125 0 67 -4 81 -30 125 -36 57 -110 111 -166
120 -22 4 -39 11 -39 16 0 5 -27 66 -60 135 -54 113 -60 130 -50 156 32 93
-10 184 -103 227 -58 26 -144 15 -176 -24 -7 -9 -22 -16 -32 -16 -36 0 -304
91 -314 106 -39 60 -99 81 -143 49z m306 -166 l117 -38 -3 -43 c-2 -24 -5 -44
-6 -45 -1 -1 -36 -5 -77 -9 l-76 -6 -54 48 c-110 98 -103 88 -84 118 20 30 13
31 183 -25z m-289 -13 c1 -5 -13 -45 -31 -88 -25 -61 -36 -78 -52 -79 -12 0
-34 -2 -51 -4 -131 -16 -122 -17 -133 15 -11 29 -9 30 101 118 l112 90 27 -22
c15 -11 27 -25 27 -30z m131 -86 c30 -27 51 -50 45 -51 -5 0 -17 -2 -25 -3
-48 -10 -161 -16 -159 -9 2 4 15 36 29 70 28 70 25 71 110 -7z m301 -112 c25
-39 26 -44 12 -65 -13 -19 -18 -21 -32 -10 -33 23 -111 92 -111 98 0 3 19 6
42 8 23 1 44 4 47 7 9 9 17 2 42 -38z m-121 -49 c69 -62 78 -74 68 -88 -35
-45 -142 -166 -150 -169 -4 -2 -79 29 -167 68 l-159 73 30 71 c16 39 33 74 37
78 8 9 52 16 146 24 44 3 82 8 84 10 13 12 38 -3 111 -67z m-406 9 c-3 -13
-15 -42 -26 -65 l-20 -42 -66 32 c-37 17 -69 33 -71 34 -2 1 4 14 12 27 17 25
35 29 140 34 35 2 38 0 31 -20z m854 -109 c28 -61 49 -115 46 -120 -3 -5 -13
-9 -23 -9 -10 0 -34 -11 -53 -24 -40 -27 -34 -30 -142 67 -38 34 -82 74 -99
88 -29 26 -29 26 -12 53 15 22 23 26 44 20 63 -17 129 -8 161 22 8 8 17 14 20
14 3 0 29 -50 58 -111z m-217 -106 c60 -53 109 -100 109 -105 0 -4 -9 -22 -20
-40 -11 -18 -20 -43 -20 -55 0 -13 -5 -23 -11 -23 -9 0 -319 137 -326 144 -1
1 10 15 25 33 15 17 49 56 75 87 27 31 50 56 53 56 3 0 55 -44 115 -97z m-358
-92 c4 -4 -29 -50 -74 -102 -83 -96 -153 -178 -224 -259 -22 -25 -65 -75 -95
-110 -30 -35 -71 -81 -90 -103 l-36 -39 -37 18 c-21 10 -36 23 -34 28 39 101
283 684 289 693 7 8 48 -6 151 -53 78 -36 145 -69 150 -73z m128 -55 c41 -18
118 -54 172 -80 55 -25 102 -46 107 -46 4 0 11 -17 15 -37 3 -21 15 -53 26
-72 11 -18 18 -35 17 -37 -2 -1 -89 -39 -193 -84 -105 -45 -204 -88 -221 -96
-16 -7 -84 -36 -149 -64 -65 -28 -133 -57 -149 -65 -58 -27 -200 -85 -202 -82
-1 1 -9 17 -18 35 -21 42 -48 4 229 322 61 70 151 174 200 233 50 58 91 106
91 106 1 1 35 -14 75 -33z m413 -331 c27 -14 55 -25 63 -25 22 0 15 -21 -38
-129 -44 -90 -53 -101 -71 -95 -12 3 -39 6 -61 6 -47 -1 -108 -44 -117 -83
l-6 -24 -279 0 c-440 0 -439 -17 -8 168 308 132 468 202 468 206 0 1 22 -10
49 -24z m281 -17 c7 -33 36 -179 41 -208 3 -14 16 -79 29 -145 30 -144 34
-161 40 -200 3 -16 8 -37 10 -45 4 -16 11 -50 21 -113 7 -37 -1 -31 -182 153
-150 151 -193 201 -207 238 l-18 47 63 127 c60 122 64 128 98 134 19 4 46 13
60 20 34 18 39 17 45 -8z m-511 -398 c18 -18 -4 -36 -76 -62 -67 -23 -76 -24
-93 -11 -40 31 -122 62 -173 67 -84 9 -187 -21 -243 -70 -8 -7 -24 -12 -35
-10 -34 7 -149 38 -156 42 -4 2 -2 18 4 35 l10 30 376 -6 c207 -3 381 -10 386
-15z m-1105 -28 l19 -38 -228 -230 -228 -230 -39 23 c-21 12 -48 23 -60 23
-30 0 -29 15 3 143 l25 103 41 15 c46 16 80 55 80 92 0 23 11 28 177 80 97 30
179 56 183 56 4 1 16 -16 27 -37z m1488 -109 c63 -65 155 -159 205 -209 l90
-92 29 -143 c16 -79 32 -160 35 -179 3 -19 8 -38 10 -42 3 -4 -5 -10 -18 -12
-44 -10 -173 -37 -193 -40 -11 -3 -85 -18 -165 -34 -80 -17 -181 -38 -225 -47
-44 -9 -96 -20 -115 -25 -19 -5 -51 -11 -70 -14 -19 -3 -72 -14 -118 -25 -77
-17 -84 -17 -92 -1 -8 15 39 128 167 400 14 30 47 102 73 160 26 58 65 143 87
190 22 47 46 99 53 116 9 21 28 38 52 49 21 9 46 28 54 41 9 13 19 24 22 24 3
0 57 -53 119 -117z m-314 56 c12 -7 24 -13 26 -15 2 -2 -6 -22 -17 -46 -12
-24 -43 -92 -70 -151 l-49 -108 0 53 c0 72 -10 114 -41 171 -14 26 -23 49 -21
50 4 3 139 55 147 56 2 1 13 -4 25 -10z m-799 -30 l83 -21 -29 -58 c-22 -45
-30 -76 -32 -127 -3 -63 0 -86 19 -138 4 -11 -11 7 -33 40 -50 75 -172 274
-172 280 0 4 69 43 78 45 1 0 40 -9 86 -21z m-257 -16 c12 -3 28 -13 36 -22 8
-9 127 -199 265 -422 171 -278 249 -413 246 -426 -5 -18 -35 -10 -410 103
-222 68 -410 126 -417 131 -11 6 4 56 70 233 46 124 100 269 120 323 29 79 39
97 52 91 9 -4 26 -9 38 -11z m-138 -75 c-31 -90 -197 -539 -201 -543 -2 -2
-30 4 -63 14 -58 18 -60 20 -71 65 -7 26 -20 58 -29 72 -9 14 -15 29 -13 34 2
7 389 409 394 410 0 0 -7 -24 -17 -52z m1984 -419 c67 -67 107 -116 105 -127
-2 -11 -26 -21 -82 -34 -44 -10 -80 -17 -82 -15 -2 1 -5 16 -9 32 -3 17 -16
81 -28 143 -13 61 -21 112 -18 112 4 0 55 -50 114 -111z m-1384 -19 c22 -11
58 -22 81 -26 46 -8 47 -8 54 -79 17 -165 18 -193 8 -199 -6 -4 -35 34 -68 86
-204 330 -191 306 -150 270 20 -17 54 -41 75 -52z m375 3 c-20 -43 -59 -129
-87 -190 -62 -140 -79 -147 -91 -38 -20 182 -20 195 1 195 38 0 109 31 158 69
28 22 51 40 52 40 1 1 -14 -34 -33 -76z m-1246 -138 c29 -9 52 -18 52 -20 0
-18 -75 -205 -81 -203 -4 2 -26 26 -47 55 l-38 52 30 65 c17 36 31 66 32 66 0
0 24 -7 52 -15z m494 -150 c208 -63 381 -115 385 -116 9 -1 -79 -23 -172 -44
-33 -7 -132 -29 -220 -50 -88 -20 -169 -38 -180 -40 -11 -3 -32 -7 -47 -11
-15 -3 -31 -6 -35 -6 -5 -1 -27 -7 -51 -14 l-43 -13 -47 60 c-84 108 -81 91
-32 228 24 67 48 121 54 121 6 0 180 -52 388 -115z m1887 102 c8 -11 0 -44
-34 -137 -25 -68 -45 -125 -45 -126 0 -1 -13 4 -29 12 -25 13 -30 22 -45 107
-10 50 -20 99 -22 108 -5 16 7 20 106 36 19 3 37 7 39 9 8 7 19 4 30 -9z
m-209 -94 c6 -32 15 -76 20 -97 10 -46 6 -56 -20 -56 -26 0 -89 -56 -96 -86
-3 -13 -9 -24 -13 -24 -6 0 -462 76 -511 85 -14 3 -85 15 -158 27 -73 11 -131
22 -130 24 3 3 740 159 798 169 19 3 36 8 39 11 2 2 17 4 32 4 26 0 28 -4 39
-57z m-2270 -73 l52 -70 -22 -64 c-23 -70 -32 -81 -71 -88 -24 -4 -28 1 -74
106 -26 61 -49 116 -52 123 -2 6 8 14 24 17 16 4 42 15 58 26 17 11 31 20 32
20 0 0 24 -31 53 -70z m1389 -106 c18 -3 42 -7 51 -9 10 -2 40 -7 67 -11 26
-5 51 -9 56 -10 4 -1 13 -2 20 -3 6 -1 -5 -11 -26 -22 -38 -20 -97 -91 -97
-116 0 -14 -51 26 -168 133 -55 49 -51 65 15 52 27 -5 63 -11 82 -14z m-1260
-69 c22 -30 41 -56 41 -58 0 -15 -53 -15 -82 1 -18 9 -34 17 -36 18 -2 1 31
94 34 94 1 0 20 -25 43 -55z m2021 -64 c8 -5 15 -17 15 -27 0 -16 -10 -20 -65
-26 -161 -17 -243 -21 -237 -11 7 11 -26 78 -54 109 -18 20 -14 19 154 -9 94
-16 179 -32 187 -36z m-1891 -110 c28 -38 51 -73 51 -79 0 -20 -32 -29 -69
-21 -20 4 -48 10 -63 13 -25 6 -26 8 -18 37 6 18 6 48 1 70 -9 39 -4 47 31 48
9 1 38 -29 67 -68z"/>
</g>
</svg>
